<svg width="72" height="49" viewBox="0 0 72 49" fill="none" xmlns="http://www.w3.org/2000/svg">
<path d="M21.0445 11.6379H13.2303V47.9142H21.0445V11.6379Z" fill="#1D1D1B"/>
<path d="M63.6029 11.4961V22.5223C62.2443 19.3759 60.0522 16.6824 57.2248 14.695C54.0954 12.495 50.4121 11.332 46.5726 11.332C36.3458 11.332 28.0263 19.6516 28.0263 29.8784C28.0263 40.1052 36.3458 48.4247 46.5726 48.4247C50.4108 48.4247 54.0941 47.2617 57.2248 45.0617C60.0522 43.0744 62.2443 40.3808 63.6029 37.2344V48.0441H71.4079V11.4961H63.6029ZM58.0832 29.8784C58.0832 36.225 52.9206 41.3876 46.574 41.3876C40.2273 41.3876 35.0647 36.225 35.0647 29.8784C35.0647 23.5317 40.2273 18.3691 46.574 18.3691C52.9206 18.3678 58.0832 23.5317 58.0832 29.8784Z" fill="#1D1D1B"/>
<path d="M33.9187 0H0V7.80498H33.9187V0Z" fill="#005BDE"/>
</svg>
