<svg id="Layer_1" data-name="Layer 1" xmlns="http://www.w3.org/2000/svg" viewBox="0 0 64 12"><defs><style>.cls-1{fill:#fff;}.cls-2{fill:none;stroke:#fff;stroke-width:0.9px;}</style></defs><path class="cls-1" d="M.11,6.92A1.84,1.84,0,0,0,2,8.73,1.84,1.84,0,0,0,3.94,6.86a1.77,1.77,0,0,0-1.2-1.7L2.18,5c-.32-.1-.76-.26-.76-.72a.59.59,0,0,1,.64-.62.58.58,0,0,1,.61.61H3.8A1.67,1.67,0,0,0,2.09,2.56,1.7,1.7,0,0,0,.33,4.24,1.61,1.61,0,0,0,1.41,5.78c.18.08.38.13.57.2.36.12.87.34.87.94a.74.74,0,0,1-.8.75.76.76,0,0,1-.79-.75ZM5.29,8.59h1.1V3.73H7.48V2.67H4.2V3.73H5.29ZM7,8.59H8.25l.61-1.53H11l.61,1.53h1.21L10.38,2.67H9.5ZM9.27,6l.67-1.72L10.62,6Zm4.67,2.6H15V3.73h1.09V2.67H12.84V3.73h1.1Zm2.79,0h1.1V2.67h-1.1Zm5-6a3.09,3.09,0,1,0,3.12,3.1A3.08,3.08,0,0,0,21.77,2.56Zm0,5.11a2,2,0,1,1,0-4,2,2,0,0,1,2,2A2,2,0,0,1,21.76,7.67Zm3.91.92h1.09v-4l2.65,4H30.5V2.67H29.41v4l-2.65-4H25.67Z"/><path class="cls-1" d="M45.7,8.59h3.83v-1H47.19l1.13-1a2.75,2.75,0,0,0,1.21-2.09,1.84,1.84,0,0,0-2-1.92,1.91,1.91,0,0,0-1.94,2.15H46.7a1,1,0,0,1,.92-1.14.82.82,0,0,1,.84.9,1.62,1.62,0,0,1-.72,1.21l-2,1.9Zm4.4-2a2,2,0,1,0,4,0V4.69a2,2,0,1,0-4,0Zm2.9,0c0,1-.63,1.12-.92,1.12s-.92-.09-.92-1.12V4.69c0-1,.64-1.12.92-1.12s.92.09.92,1.12Zm1.66,2h3.82v-1H56.14l1.13-1a2.75,2.75,0,0,0,1.21-2.09,1.84,1.84,0,0,0-1.94-1.92,1.91,1.91,0,0,0-1.95,2.15h1.07a1,1,0,0,1,.91-1.14.83.83,0,0,1,.85.9,1.64,1.64,0,0,1-.72,1.21l-2,1.9Zm4.42,0H62.9v-1H60.56l1.13-1A2.75,2.75,0,0,0,62.9,4.48,1.84,1.84,0,0,0,61,2.56a1.91,1.91,0,0,0-2,2.15h1.07A1,1,0,0,1,61,3.57a.83.83,0,0,1,.85.9,1.64,1.64,0,0,1-.72,1.21l-2,1.9Z"/><path class="cls-1" d="M40.92,4.36a2.93,2.93,0,0,0-2.75-1.8,3.09,3.09,0,1,0,0,6.17A2.91,2.91,0,0,0,40.88,7H39.61a1.75,1.75,0,0,1-1.42.69,2,2,0,0,1-2-2,2,2,0,0,1,2-2,1.89,1.89,0,0,1,1.49.73Z"/><path class="cls-2" d="M42.71,5.64a4.65,4.65,0,0,1-9.29,0,4.65,4.65,0,0,1,9.29,0Z"/></svg>