<svg xmlns="http://www.w3.org/2000/svg" viewBox="0 0 62.86 6.17"><defs><style>.cls-1{fill:#fff;}</style></defs><g id="Layer_2" data-name="Layer 2"><g id="Layer_1-2" data-name="Layer 1"><path class="cls-1" d="M0,4.36A1.84,1.84,0,0,0,1.91,6.17,1.85,1.85,0,0,0,3.83,4.3a1.77,1.77,0,0,0-1.2-1.7l-.56-.19c-.33-.11-.76-.26-.76-.72a.59.59,0,0,1,.63-.63.59.59,0,0,1,.62.62H3.69A1.68,1.68,0,0,0,2,0,1.69,1.69,0,0,0,.22,1.68,1.61,1.61,0,0,0,1.3,3.22c.18.08.38.13.57.2.35.12.87.34.87.94a.74.74,0,0,1-.8.74.77.77,0,0,1-.8-.74ZM5.18,6h1.1V1.17H7.37V.1H4.08V1.17h1.1ZM6.93,6H8.14l.6-1.52h2.18L11.53,6h1.21L10.27.1H9.39ZM9.16,3.43,9.83,1.7l.67,1.73ZM13.83,6h1.09V1.17H16V.1H12.73V1.17h1.1Zm2.79,0h1.1V.1h-1.1Zm5-6a3.09,3.09,0,1,0,3.12,3.1A3.08,3.08,0,0,0,21.65,0Zm0,5.1a2,2,0,0,1-2-2,2,2,0,0,1,4.05,0A2,2,0,0,1,21.65,5.1ZM25.56,6h1.09V2l2.64,4h1.1V.1h-1.1v4L26.65.1H25.56Z"/><path class="cls-1" d="M45.59,6h3.83V5H47.08l1.13-1a2.78,2.78,0,0,0,1.21-2.09,1.84,1.84,0,0,0-2-1.92,1.91,1.91,0,0,0-1.94,2.15h1.06A1,1,0,0,1,47.5,1a.82.82,0,0,1,.85.89,1.62,1.62,0,0,1-.72,1.22l-2,1.9ZM50,4a2,2,0,1,0,4,0V2.13a2,2,0,1,0-4,0Zm2.9,0c0,1-.63,1.12-.92,1.12s-.92-.09-.92-1.12V2.13c0-1,.63-1.12.92-1.12s.92.09.92,1.12Zm1.65,2h3.83V5H56l1.13-1a2.78,2.78,0,0,0,1.21-2.09A1.84,1.84,0,0,0,56.42,0a1.91,1.91,0,0,0-1.94,2.15h1.06A1,1,0,0,1,56.46,1a.82.82,0,0,1,.84.89,1.62,1.62,0,0,1-.72,1.22l-2,1.9ZM59,6h3.83V5H60.52l1.13-1a2.78,2.78,0,0,0,1.21-2.09,1.84,1.84,0,0,0-2-1.92A1.91,1.91,0,0,0,59,2.15H60A1,1,0,0,1,60.94,1a.82.82,0,0,1,.85.89,1.62,1.62,0,0,1-.72,1.22L59,5Z"/><path class="cls-1" d="M40.8,1.8A2.9,2.9,0,0,0,38.06,0,3.05,3.05,0,0,0,35,3.06,3.07,3.07,0,0,0,38,6.17a2.92,2.92,0,0,0,2.73-1.75H39.5a1.75,1.75,0,0,1-1.42.68,2,2,0,0,1-2-2,2,2,0,0,1,2-2,1.87,1.87,0,0,1,1.49.74Z"/></g></g></svg>