<svg xmlns="http://www.w3.org/2000/svg" viewBox="0 0 1439.6 155"><defs><style>.cls-1{fill:none;}</style></defs><g id="Layer_2" data-name="Layer 2"><g id="Layer_1-2" data-name="Layer 1"><path d="M0,151.4V3.4H108.8v148H81.4V30h-54V151.4Zm135.94,0V3.4h41.4q25.4.19,39.2,12.6,13.8,12.2,13.8,33.6,0,20.21-13.4,33t-39.6,12.8h-14v56ZM163.34,30V68.8h16.2q11.19,0,17.2-4.8t6.2-14.6q0-9.6-6.2-14.4-6-5-17.2-5ZM318.45.8q33,0,55.4,22.6,22.61,22.6,22.6,54.8t-22.6,54.6Q351.26,155,318.45,155q-33,0-55.6-22.2-22.61-22.4-22.4-54.6,0-32.21,22.4-54.8T318.45.8Zm-.2,127.6q21.6,0,36.2-14.8a49.75,49.75,0,0,0,14.6-36,48.17,48.17,0,0,0-14.6-35.4q-14.59-14.81-36-14.8-21.6,0-36.2,14.8a48.54,48.54,0,0,0-14.4,35.4q0,21.2,14.4,36Q296.85,128.41,318.25,128.4ZM508.62,3.4v148h-27.4V94h-.4l-39.6,57.4h-32L450,96.8q-17.81-2-28.8-14t-11-31q0-22.39,14.2-35.4,14.4-13,41.4-13ZM481.22,30H465q-13.8,0-20.6,5.8-6.8,5.6-6.8,16.2-.19,10.8,6.6,16.4,7,5.59,20.8,5.6h16.2Zm54.52,121.4V3.4h35.6q25.8.19,38.6,10.6,12.81,10.2,12.8,28.4a32.28,32.28,0,0,1-4.4,17.2,31.15,31.15,0,0,1-11.8,11,35.41,35.41,0,0,1,18.4,13.6,37.39,37.39,0,0,1,6.8,22.2q0,21.6-14.8,33.4-14.79,11.59-44.2,11.6Zm27.4-26.6h17.8q11.2.2,17.2-4.8,6.21-5,6.2-13.8t-6-13.8q-6-5.2-17.4-5.4h-17.8Zm0-64.4h12.8q9.4,0,14.2-4a14.43,14.43,0,0,0,5.2-11.2q0-7.61-5-11.4T575.94,30h-12.8Zm88.62-57h27.4v104l66-104h27.4v148h-27.4V47.4l-66,104h-27.4ZM984.88,45.8h-31.2a49,49,0,0,0-16.6-13.6,45.41,45.41,0,0,0-20.6-4.8q-21.79,0-36,15t-14.2,35a50.46,50.46,0,0,0,14.6,36.2q14.61,15,35.8,14.8a46.17,46.17,0,0,0,19.4-4.2,41.92,41.92,0,0,0,16.2-13h31.8a77.32,77.32,0,0,1-27.4,32Q939.09,155,915.88,155q-32.6,0-54.8-22.4t-22.2-55.2q0-31.8,22.2-54.2Q883.49.8,916.28.8q23,0,41,12Q975.49,24.61,984.88,45.8Zm17.66,105.6V3.4h79.4V30h-52V64.2h49.8V90.8h-49.8v34h52v26.6Zm103.91-148h86.4V30h-59V60.4h23.6q24.79,0,36.8,13.2,12.2,13.2,12.2,32.4,0,20.2-13.8,32.8-13.61,12.6-35.2,12.6h-51Zm27.4,83.6v37.8h23.8q9.39.2,15.2-4.8,6-5.2,6.2-14a17.65,17.65,0,0,0-5.6-13.2q-5.4-5.6-15.8-5.8ZM1319.17,3.4v148h-27.4V94h-.4l-39.6,57.4h-32l40.8-54.6q-17.8-2-28.8-14t-11-31q0-22.39,14.2-35.4,14.4-13,41.4-13ZM1291.77,30h-16.2q-13.8,0-20.6,5.8-6.81,5.6-6.8,16.2-.21,10.8,6.6,16.4,7,5.59,20.8,5.6h16.2Z"/><path class="cls-1" d="M1341.2,48.4q0-22.39,14.2-35.4,14.4-13,41.4-13h42.8V148h-27.4V90.6h-.4L1372.2,148h-32"/><path class="cls-1" d="M1412.2,26.6H1396q-13.8,0-20.6,5.8-6.81,5.6-6.8,16.2-.21,10.8,6.6,16.4,7,5.59,20.8,5.6h16.2Z"/></g></g></svg>