<svg width="267" height="57" viewBox="0 0 267 57" fill="none" xmlns="http://www.w3.org/2000/svg">
<g clip-path="url(#clip0_12_249)">
<path d="M137.339 12.0549V26.3928H120.249V12.0549H112.304V48.6767H120.249V33.491H137.339V48.6767H145.284V12.0549H137.339Z" fill="#1D1D1B"/>
<path d="M176.929 12.0549V41.5798H160.492V12.0549H152.548V48.6767H182.854L183.245 56.9537H190.088V41.5798H184.874V12.0549H176.929Z" fill="#1D1D1B"/>
<path d="M221.954 12.0549L203.569 35.8713V12.0549H195.624V48.6767H202.924L221.31 24.8589V48.6767H229.254V12.0549H221.954Z" fill="#1D1D1B"/>
<path d="M251.387 12.0549C247.314 12.0549 243.911 12.9988 241.271 14.8611C238.494 16.8209 237.085 19.834 237.085 23.8149V24.0099C237.085 28.964 239.511 32.3456 244.129 33.8822L233.389 48.6753H242.72L252.235 35.3146H259.054V48.6753H267V12.0549H251.387ZM259.055 18.8915V28.6743H251.063C248.787 28.6743 247.182 28.2765 246.295 27.4929C245.444 26.7386 245.03 25.5998 245.03 24.0099V23.8149C245.03 21.5228 245.716 18.8901 251.063 18.8901H259.055V18.8915Z" fill="#1D1D1B"/>
<path d="M53.1184 11.8362H45.1711V48.7302H53.1184V11.8362Z" fill="#1D1D1B"/>
<path d="M96.4017 11.692V22.906C95.02 19.706 92.7906 16.9666 89.915 14.9454C86.7323 12.708 82.9863 11.5251 79.0815 11.5251C68.6805 11.5251 60.2192 19.9864 60.2192 30.3874C60.2192 40.7884 68.6805 49.2496 79.0815 49.2496C82.985 49.2496 86.731 48.0668 89.915 45.8293C92.7906 43.8081 95.02 41.0687 96.4017 37.8687V48.8624H104.34V11.692H96.4017ZM90.7881 30.3874C90.7881 36.8421 85.5375 42.0926 79.0828 42.0926C72.6281 42.0926 67.3775 36.8421 67.3775 30.3874C67.3775 23.9326 72.6281 18.6821 79.0828 18.6821C85.5375 18.6807 90.7881 23.9326 90.7881 30.3874Z" fill="#1D1D1B"/>
<path d="M30.8532 34.0734C30.402 35.3964 29.8079 36.5925 29.0643 37.6245C26.3716 40.9393 23.1809 42.5506 19.3121 42.5506C16.5139 42.5506 14.0255 41.6896 11.7039 39.9193C8.60274 37.2267 7.09552 34.1174 7.09552 30.4142C7.09552 27.6173 7.9566 25.1289 9.72681 22.806C12.4195 19.7061 15.5287 18.1989 19.232 18.1989C20.9849 18.1989 22.6683 18.5607 24.2329 19.2736C27.262 20.6593 29.3647 22.8807 30.6623 26.062L30.717 26.1969L37.4374 23.9995C37.3546 23.7031 37.1811 23.2532 36.8166 22.3641L36.7806 22.2827C35.8234 20.2508 34.5151 18.3831 32.8944 16.7331L32.8543 16.693C28.9682 12.9817 24.3985 11.0994 19.2721 11.0994C14.0575 11.0994 9.4291 13.0405 5.51622 16.8666L5.46415 16.92C1.83829 20.7795 0 25.3051 0 30.3741C0 35.5886 1.93975 40.2171 5.7672 44.1299L5.8206 44.182C9.67741 47.8079 14.2031 49.6462 19.2734 49.6462C24.5173 49.6462 29.1738 47.677 33.1147 43.7949L33.1921 43.7134C34.8755 41.8284 35.9742 40.2411 36.5456 38.8607C37.3132 37.4136 37.8579 35.7969 38.1837 34.056L30.8532 34.0734Z" fill="#1D1D1B"/>
<path d="M66.212 0H31.7156V7.93791H66.212V0Z" fill="#005BDE"/>
</g>
<defs>
<clipPath id="clip0_12_249">
<rect width="267" height="56.9538" fill="white"/>
</clipPath>
</defs>
</svg>
